<svg width="116" height="35" viewBox="0 0 116 35" fill="none" xmlns="http://www.w3.org/2000/svg">
<path d="M4.80476 5.92649C7.34642 5.92649 9.29617 6.39966 10.654 7.34601C12.0293 8.27545 12.717 9.66962 12.717 11.5285C12.717 12.5425 12.5255 13.4128 12.1425 14.1394C11.7769 14.8492 11.2372 15.4322 10.5235 15.8885C9.82714 16.3278 8.97412 16.6489 7.96442 16.8517C6.95472 17.0545 5.81446 17.1559 4.54364 17.1559H2.53295V23.6705H0V6.35741C0.713751 6.18842 1.50584 6.07858 2.37627 6.02788C3.26411 5.96029 4.07361 5.92649 4.80476 5.92649ZM5.01367 8.08112C3.93434 8.08112 3.10743 8.10646 2.53295 8.15716V15.052H4.43918C5.30961 15.052 6.093 15.0013 6.78934 14.8999C7.48568 14.7816 8.06887 14.5957 8.5389 14.3422C9.02634 14.0718 9.40063 13.7085 9.66175 13.2522C9.92288 12.7959 10.0534 12.2129 10.0534 11.5032C10.0534 10.8272 9.91418 10.2695 9.63564 9.83016C9.37451 9.39079 9.00893 9.04436 8.5389 8.79087C8.08628 8.52049 7.55532 8.3346 6.94602 8.23321C6.33672 8.13181 5.6926 8.08112 5.01367 8.08112Z" fill="black"/>
<path d="M27.1551 17.0798C27.1551 18.1276 26.9984 19.0739 26.6851 19.9189C26.3717 20.7638 25.9278 21.4905 25.3533 22.0989C24.7963 22.7072 24.126 23.1804 23.3426 23.5184C22.5593 23.8395 21.7062 24 20.7836 24C19.8609 24 19.0079 23.8395 18.2245 23.5184C17.4411 23.1804 16.7622 22.7072 16.1877 22.0989C15.6306 21.4905 15.1954 20.7638 14.8821 19.9189C14.5687 19.0739 14.412 18.1276 14.412 17.0798C14.412 16.049 14.5687 15.1111 14.8821 14.2662C15.1954 13.4043 15.6306 12.6692 16.1877 12.0608C16.7622 11.4525 17.4411 10.9877 18.2245 10.6667C19.0079 10.3287 19.8609 10.1597 20.7836 10.1597C21.7062 10.1597 22.5593 10.3287 23.3426 10.6667C24.126 10.9877 24.7963 11.4525 25.3533 12.0608C25.9278 12.6692 26.3717 13.4043 26.6851 14.2662C26.9984 15.1111 27.1551 16.049 27.1551 17.0798ZM24.6222 17.0798C24.6222 15.5927 24.274 14.4183 23.5777 13.5564C22.8987 12.6777 21.9674 12.2383 20.7836 12.2383C19.5998 12.2383 18.6597 12.6777 17.9634 13.5564C17.2845 14.4183 16.945 15.5927 16.945 17.0798C16.945 18.567 17.2845 19.7499 17.9634 20.6286C18.6597 21.4905 19.5998 21.9214 20.7836 21.9214C21.9674 21.9214 22.8987 21.4905 23.5777 20.6286C24.274 19.7499 24.6222 18.567 24.6222 17.0798Z" fill="black"/>
<path d="M35.5855 10.2104C35.7944 10.2104 36.0294 10.2273 36.2905 10.2611C36.5691 10.278 36.8389 10.3118 37.1 10.3625C37.3612 10.3963 37.5962 10.4385 37.8051 10.4892C38.0314 10.523 38.1968 10.5568 38.3012 10.5906L37.8834 12.6439C37.6919 12.5763 37.3699 12.5002 36.9172 12.4157C36.482 12.3143 35.9163 12.2636 35.2199 12.2636C34.7673 12.2636 34.3147 12.3143 33.862 12.4157C33.4268 12.5002 33.1396 12.5594 33.0003 12.5932V23.6705H30.5718V11.0469C31.1463 10.8441 31.8601 10.6582 32.7131 10.4892C33.5661 10.3033 34.5236 10.2104 35.5855 10.2104Z" fill="black"/>
<path d="M42.9165 10.4892H48.0607V12.4664H42.9165V18.5501C42.9165 19.2091 42.9687 19.7583 43.0731 20.1977C43.1776 20.6202 43.3343 20.9582 43.5432 21.2117C43.7521 21.4482 44.0132 21.6172 44.3266 21.7186C44.6399 21.82 45.0055 21.8707 45.4233 21.8707C46.1545 21.8707 46.7376 21.7947 47.1729 21.6426C47.6255 21.4736 47.9388 21.3553 48.1129 21.2877L48.583 23.2395C48.3392 23.3578 47.9127 23.5015 47.3034 23.6705C46.6941 23.8564 45.9978 23.9493 45.2144 23.9493C44.2917 23.9493 43.5258 23.8395 42.9165 23.6198C42.3246 23.3832 41.8458 23.0368 41.4803 22.5805C41.1147 22.1242 40.8535 21.5665 40.6969 20.9075C40.5576 20.2315 40.488 19.4542 40.488 18.5754V6.81369L42.9165 6.40811V10.4892Z" fill="black"/>
<path d="M55.7469 21.9721C56.3213 21.9721 56.8262 21.9637 57.2614 21.9468C57.714 21.913 58.0883 21.8623 58.3843 21.7947V17.8657C58.2102 17.7812 57.9229 17.7136 57.5225 17.6629C57.1395 17.5953 56.6695 17.5615 56.1124 17.5615C55.7469 17.5615 55.3552 17.5868 54.9374 17.6375C54.537 17.6882 54.1627 17.7981 53.8145 17.967C53.4837 18.1191 53.2052 18.3388 52.9789 18.6261C52.7526 18.8965 52.6394 19.2598 52.6394 19.7161C52.6394 20.561 52.918 21.1525 53.475 21.4905C54.0321 21.8116 54.7894 21.9721 55.7469 21.9721ZM55.538 10.1597C56.5128 10.1597 57.331 10.2864 57.9926 10.5399C58.6715 10.7765 59.2112 11.1229 59.6116 11.5792C60.0294 12.0186 60.3253 12.5509 60.4994 13.1762C60.6735 13.7845 60.7605 14.4605 60.7605 15.2041V23.4423C60.5516 23.4761 60.2557 23.5268 59.8727 23.5944C59.5071 23.6451 59.0893 23.6958 58.6193 23.7465C58.1492 23.7972 57.6357 23.8395 57.0786 23.8733C56.5389 23.924 55.9993 23.9493 55.4596 23.9493C54.6936 23.9493 53.9886 23.8733 53.3445 23.7212C52.7004 23.5691 52.1433 23.3325 51.6733 23.0114C51.2032 22.6734 50.8376 22.2341 50.5765 21.6933C50.3154 21.1525 50.1848 20.5019 50.1848 19.7414C50.1848 19.0148 50.3328 18.3895 50.6287 17.8657C50.9421 17.3418 51.3599 16.9193 51.8822 16.5982C52.4044 16.2771 53.0137 16.0406 53.71 15.8885C54.4064 15.7364 55.1376 15.6603 55.9035 15.6603C56.1473 15.6603 56.3997 15.6772 56.6608 15.711C56.9219 15.7279 57.1657 15.7617 57.392 15.8124C57.6357 15.8462 57.8446 15.88 58.0187 15.9138C58.1928 15.9476 58.3146 15.973 58.3843 15.9899V15.3308C58.3843 14.9421 58.3407 14.5619 58.2537 14.1901C58.1666 13.8014 58.01 13.4635 57.7836 13.1762C57.5573 12.872 57.244 12.6354 56.8436 12.4664C56.4606 12.2805 55.9558 12.1876 55.329 12.1876C54.5283 12.1876 53.8232 12.2467 53.2139 12.365C52.622 12.4664 52.1781 12.5763 51.8822 12.6945L51.5949 10.7427C51.9083 10.6075 52.4305 10.4808 53.1617 10.3625C53.8928 10.2273 54.6849 10.1597 55.538 10.1597Z" fill="black"/>
<path d="M70.0948 4C70.8086 4 71.4179 4.0507 71.9227 4.15209C72.445 4.25348 72.8106 4.34643 73.0195 4.43092L72.5756 6.45881C72.3667 6.35741 72.0707 6.26447 71.6877 6.17997C71.3047 6.07858 70.8347 6.02788 70.2776 6.02788C69.1461 6.02788 68.354 6.33207 67.9014 6.94043C67.4487 7.5319 67.2224 8.3346 67.2224 9.34854V10.4892H72.445V12.4664H67.2224V23.6705H64.7939V9.29784C64.7939 7.60794 65.2204 6.30672 66.0735 5.39417C66.9265 4.46472 68.2669 4 70.0948 4Z" fill="black"/>
<path d="M86.8526 17.0798C86.8526 18.1276 86.6959 19.0739 86.3825 19.9189C86.0692 20.7638 85.6252 21.4905 85.0508 22.0989C84.4937 22.7072 83.8235 23.1804 83.0401 23.5184C82.2567 23.8395 81.4037 24 80.481 24C79.5584 24 78.7053 23.8395 77.922 23.5184C77.1386 23.1804 76.4596 22.7072 75.8852 22.0989C75.3281 21.4905 74.8929 20.7638 74.5795 19.9189C74.2662 19.0739 74.1095 18.1276 74.1095 17.0798C74.1095 16.049 74.2662 15.1111 74.5795 14.2662C74.8929 13.4043 75.3281 12.6692 75.8852 12.0608C76.4596 11.4525 77.1386 10.9877 77.922 10.6667C78.7053 10.3287 79.5584 10.1597 80.481 10.1597C81.4037 10.1597 82.2567 10.3287 83.0401 10.6667C83.8235 10.9877 84.4937 11.4525 85.0508 12.0608C85.6252 12.6692 86.0692 13.4043 86.3825 14.2662C86.6959 15.1111 86.8526 16.049 86.8526 17.0798ZM84.3196 17.0798C84.3196 15.5927 83.9714 14.4183 83.2751 13.5564C82.5962 12.6777 81.6648 12.2383 80.481 12.2383C79.2972 12.2383 78.3572 12.6777 77.6608 13.5564C76.9819 14.4183 76.6424 15.5927 76.6424 17.0798C76.6424 18.567 76.9819 19.7499 77.6608 20.6286C78.3572 21.4905 79.2972 21.9214 80.481 21.9214C81.6648 21.9214 82.5962 21.4905 83.2751 20.6286C83.9714 19.7499 84.3196 18.567 84.3196 17.0798Z" fill="black"/>
<path d="M94.3429 23.924C92.8457 23.8902 91.7838 23.5775 91.1571 22.9861C90.5304 22.3946 90.217 21.4736 90.217 20.2231V4.40558L92.6455 4V19.8428C92.6455 20.2315 92.6803 20.5526 92.75 20.8061C92.8196 21.0596 92.9328 21.2624 93.0895 21.4144C93.2461 21.5665 93.455 21.6848 93.7162 21.7693C93.9773 21.8369 94.2993 21.8961 94.6823 21.9468L94.3429 23.924Z" fill="black"/>
<path d="M99.838 23.6705H97.4095V10.4892H99.838V23.6705ZM98.6107 8.10646C98.1755 8.10646 97.8012 7.97127 97.4878 7.70089C97.1919 7.4136 97.0439 7.03338 97.0439 6.5602C97.0439 6.08703 97.1919 5.71525 97.4878 5.44487C97.8012 5.15758 98.1755 5.01394 98.6107 5.01394C99.0459 5.01394 99.4115 5.15758 99.7074 5.44487C100.021 5.71525 100.177 6.08703 100.177 6.5602C100.177 7.03338 100.021 7.4136 99.7074 7.70089C99.4115 7.97127 99.0459 8.10646 98.6107 8.10646Z" fill="black"/>
<path d="M116 17.0798C116 18.1276 115.843 19.0739 115.53 19.9189C115.217 20.7638 114.773 21.4905 114.198 22.0989C113.641 22.7072 112.971 23.1804 112.188 23.5184C111.404 23.8395 110.551 24 109.628 24C108.706 24 107.853 23.8395 107.069 23.5184C106.286 23.1804 105.607 22.7072 105.033 22.0989C104.476 21.4905 104.04 20.7638 103.727 19.9189C103.414 19.0739 103.257 18.1276 103.257 17.0798C103.257 16.049 103.414 15.1111 103.727 14.2662C104.04 13.4043 104.476 12.6692 105.033 12.0608C105.607 11.4525 106.286 10.9877 107.069 10.6667C107.853 10.3287 108.706 10.1597 109.628 10.1597C110.551 10.1597 111.404 10.3287 112.188 10.6667C112.971 10.9877 113.641 11.4525 114.198 12.0608C114.773 12.6692 115.217 13.4043 115.53 14.2662C115.843 15.1111 116 16.049 116 17.0798ZM113.467 17.0798C113.467 15.5927 113.119 14.4183 112.423 13.5564C111.744 12.6777 110.812 12.2383 109.628 12.2383C108.445 12.2383 107.505 12.6777 106.808 13.5564C106.129 14.4183 105.79 15.5927 105.79 17.0798C105.79 18.567 106.129 19.7499 106.808 20.6286C107.505 21.4905 108.445 21.9214 109.628 21.9214C110.812 21.9214 111.744 21.4905 112.423 20.6286C113.119 19.7499 113.467 18.567 113.467 17.0798Z" fill="black"/>
</svg>
